<svg id="Paths" xmlns="http://www.w3.org/2000/svg" xmlns:xlink="http://www.w3.org/1999/xlink" width="809.71328" height="95.57021" viewBox="0 0 809.71328 95.57021">
  <defs>
    <style>
      .cls-1 {
        fill: #12284c;
      }

      .cls-2 {
        fill: url(#linear-gradient);
      }

      .cls-3 {
        fill: url(#linear-gradient-2);
      }
    </style>
    <linearGradient id="linear-gradient" x1="302" y1="1.393" x2="302" y2="94.97202" gradientUnits="userSpaceOnUse">
      <stop offset="0" stop-color="#09caa9"/>
      <stop offset="1" stop-color="#1c7cf3"/>
    </linearGradient>
    <linearGradient id="linear-gradient-2" x1="371.5" y1="2.71416" x2="371.5" y2="94.31069" xlink:href="#linear-gradient"/>
  </defs>
  <path class="cls-1" d="M798.93642,10.47251Q810.0005,21.4208,810,41.73821V93.45264H788.2646A.26461.26461,0,0,1,788,93.188V42.53q0-24.80425-20.49951-24.80227-9.98618,0-15.24383,6.00261Q747.00149,29.73151,747,42.53v50.9226H726V41.73821q0-20.31791,11.06258-31.2657Q748.12667-.48025,768-.47728,787.87383-.47728,798.93642,10.47251Z"/>
  <path class="cls-1" d="M29,20.45264H0v-17H79v17H50v74H29Z"/>
  <path class="cls-1" d="M157,77.45264v17H86V20.21293A16.76029,16.76029,0,0,1,102.76029,3.45264H155v17H107v19h41.99951v16H107v22Z"/>
  <path class="cls-1" d="M225.41,93.45264l-17.30743-25H189v25H168v-90h39.2778q12.05562,0,20.93476,3.9855a31.05686,31.05686,0,0,1,13.67622,11.31471,30.99029,30.99029,0,0,1,4.79634,17.357,30.35923,30.35923,0,0,1-4.8611,17.29272,30.756,30.756,0,0,1-13.80573,11.12155l20.35195,28.92857ZM220.869,24.58354q-4.98531-4.13115-14.55768-4.1309H189v32h17.31129q9.57237,0,14.55768-4.19643,4.98236-4.19618,4.98359-11.80357Q225.85256,28.71569,220.869,24.58354Z"/>
  <path class="cls-1" d="M520,77.45264v17H450V20.217A16.76436,16.76436,0,0,1,466.76437,3.45264H518v17H471v19h42v16H470v22Z"/>
  <path class="cls-1" d="M549.13721,89.52529a45.1114,45.1114,0,0,1-17.68018-16.77A46.19977,46.19977,0,0,1,525.022,48.51015,46.20474,46.20474,0,0,1,531.457,24.265a45.11137,45.11137,0,0,1,17.68018-16.77,56.41549,56.41549,0,0,1,46.66992-1.88477,42.855,42.855,0,0,1,16.05517,11.96l-13.52,12.48Q589.11011,19.392,575.46191,19.39a30.38006,30.38006,0,0,0-15.07959,3.70508,26.33582,26.33582,0,0,0-10.335,10.335,30.38066,30.38066,0,0,0-3.70507,15.08008,30.37538,30.37538,0,0,0,3.70507,15.08008,26.33576,26.33576,0,0,0,10.335,10.335,30.38,30.38,0,0,0,15.07959,3.70508q13.65015,0,22.88038-10.79l13.52,12.48a42.14681,42.14681,0,0,1-16.12011,12.08984,53.51844,53.51844,0,0,1-21.4502,4.16016A52.26383,52.26383,0,0,1,549.13721,89.52529Z"/>
  <path class="cls-1" d="M640.81543,89.46035a45.33757,45.33757,0,0,1-17.81006-16.835,45.95952,45.95952,0,0,1-6.43506-24.11524,45.96444,45.96444,0,0,1,6.43506-24.11523A45.35122,45.35122,0,0,1,640.81543,7.56a56.31991,56.31991,0,0,1,51.0249,0,45.53654,45.53654,0,0,1,24.31006,40.95019,45.53654,45.53654,0,0,1-24.31006,40.9502,56.32,56.32,0,0,1-51.0249,0Zm40.105-15.53516a26.59654,26.59654,0,0,0,10.20508-10.335,30.37538,30.37538,0,0,0,3.70508-15.08008,30.38067,30.38067,0,0,0-3.70508-15.08008,26.59661,26.59661,0,0,0-10.20508-10.335,30.46128,30.46128,0,0,0-29.12012,0,26.57894,26.57894,0,0,0-10.20459,10.335,30.38066,30.38066,0,0,0-3.70507,15.08008,30.37538,30.37538,0,0,0,3.70507,15.08008,26.57887,26.57887,0,0,0,10.20459,10.335,30.46128,30.46128,0,0,0,29.12012,0Z"/>
  <path class="cls-2" d="M332.1999,12.68256Q321.403,1.89031,301.99976,1.89252q-19.40053,0-30.20015,10.79Q261.002,23.47187,261,43.49261v50.96h20v-26h41v26h21v-50.96Q343,23.47187,332.1999,12.68256ZM281,52.45264V43.7627q0-12.61085,5.25611-18.52491,5.25734-5.91723,15.24364-5.915,20.5,0,20.50025,24.44v8.68994Z"/>
  <polygon class="cls-3" points="382 52.332 382 20.613 382 3.453 361 3.453 361 94.453 382 94.453 382 69.103 382 52.332"/>
  <path class="cls-1" d="M419.6152,64.60659a30.46913,30.46913,0,0,0,13.654-11.08987,30.45645,30.45645,0,0,0,4.80767-17.24339,31.09146,31.09146,0,0,0-4.74363-17.30743A30.77609,30.77609,0,0,0,419.80734,7.68346,49.29285,49.29285,0,0,0,400,3.72835V20.68956q7.85056.40485,12.1793,3.98111,4.87051,4.03842,4.87171,11.60266,0,7.43686-4.87171,11.53861Q407.85664,51.45237,400,51.85637V68.45264h.12833l17.30743,25h22.30772Z"/>
</svg>
